<?xml version="1.0" encoding="UTF-8"?>
<svg xmlns="http://www.w3.org/2000/svg" xmlns:xlink="http://www.w3.org/1999/xlink" width="174" height="306" viewBox="0 0 174 306">
<rect x="-17.4" y="-30.6" width="208.8" height="367.2" fill="rgb(100%, 100%, 100%)" fill-opacity="1"/>
<path fill-rule="nonzero" fill="rgb(97.254902%, 46.27451%, 42.745098%)" fill-opacity="0.501961" d="M 7.910156 278.675781 L 8.21875 277.976562 L 8.527344 277.25 L 8.835938 276.496094 L 9.148438 275.714844 L 9.457031 274.902344 L 9.765625 274.042969 L 10.074219 273.148438 L 10.386719 272.214844 L 10.695312 271.238281 L 11.003906 270.214844 L 11.3125 269.132812 L 11.625 268 L 11.933594 266.816406 L 12.242188 265.574219 L 12.550781 264.273438 L 12.863281 262.894531 L 13.171875 261.453125 L 13.480469 259.949219 L 13.789062 258.375 L 14.101562 256.726562 L 14.410156 254.988281 L 14.71875 253.179688 L 15.027344 251.292969 L 15.339844 249.332031 L 15.648438 247.285156 L 15.957031 245.144531 L 16.265625 242.921875 L 16.578125 240.621094 L 16.886719 238.238281 L 17.195312 235.761719 L 17.503906 233.1875 L 17.816406 230.535156 L 18.125 227.796875 L 18.433594 224.976562 L 18.742188 222.0625 L 19.054688 219.050781 L 19.363281 215.957031 L 19.671875 212.785156 L 19.980469 209.535156 L 20.292969 206.1875 L 20.601562 202.753906 L 20.910156 199.246094 L 21.21875 195.660156 L 21.53125 192.007812 L 21.839844 188.265625 L 22.148438 184.453125 L 22.457031 180.582031 L 22.769531 176.648438 L 23.078125 172.660156 L 23.386719 168.613281 L 23.695312 164.519531 L 24.007812 160.386719 L 24.316406 156.226562 L 24.625 152.039062 L 24.933594 147.828125 L 25.242188 143.613281 L 25.554688 139.398438 L 25.863281 135.191406 L 26.171875 130.996094 L 26.480469 126.835938 L 26.792969 122.714844 L 27.101562 118.636719 L 27.410156 114.609375 L 27.71875 110.640625 L 28.03125 106.757812 L 28.339844 102.953125 L 28.648438 99.226562 L 28.957031 95.585938 L 29.269531 92.035156 L 29.578125 88.609375 L 29.886719 85.277344 L 30.195312 82.046875 L 30.507812 78.910156 L 30.816406 75.882812 L 31.125 72.976562 L 31.433594 70.164062 L 31.746094 67.445312 L 32.054688 64.816406 L 32.363281 62.28125 L 32.671875 59.84375 L 32.984375 57.480469 L 33.292969 55.1875 L 33.601562 52.964844 L 33.910156 50.8125 L 34.222656 48.726562 L 34.53125 46.695312 L 34.839844 44.714844 L 35.148438 42.78125 L 35.460938 40.902344 L 35.769531 39.074219 L 36.078125 37.292969 L 36.386719 35.558594 L 36.699219 33.867188 L 37.007812 32.234375 L 37.316406 30.660156 L 37.625 29.136719 L 37.9375 27.671875 L 38.246094 26.261719 L 38.554688 24.929688 L 38.863281 23.671875 L 39.175781 22.480469 L 39.484375 21.359375 L 39.792969 20.316406 L 40.101562 19.363281 L 40.414062 18.492188 L 40.722656 17.703125 L 41.03125 16.988281 L 41.339844 16.347656 L 41.652344 15.804688 L 41.960938 15.335938 L 42.269531 14.941406 L 42.578125 14.609375 L 42.886719 14.34375 L 43.199219 14.15625 L 43.507812 14.023438 L 43.816406 13.941406 L 44.125 13.910156 L 44.4375 13.921875 L 44.746094 13.984375 L 45.054688 14.085938 L 45.363281 14.21875 L 45.675781 14.378906 L 45.984375 14.570312 L 46.292969 14.792969 L 46.601562 15.039062 L 46.914062 15.304688 L 47.222656 15.589844 L 47.53125 15.898438 L 47.839844 16.226562 L 48.152344 16.574219 L 48.460938 16.9375 L 48.769531 17.316406 L 49.078125 17.714844 L 49.390625 18.128906 L 49.699219 18.554688 L 50.007812 18.996094 L 50.316406 19.453125 L 50.628906 19.921875 L 50.9375 20.40625 L 51.246094 20.90625 L 51.554688 21.414062 L 51.867188 21.941406 L 52.175781 22.484375 L 52.484375 23.046875 L 52.792969 23.628906 L 53.105469 24.230469 L 53.414062 24.863281 L 53.722656 25.53125 L 54.03125 26.238281 L 54.34375 26.992188 L 54.652344 27.796875 L 54.960938 28.660156 L 55.269531 29.601562 L 55.582031 30.628906 L 55.890625 31.742188 L 56.199219 32.949219 L 56.507812 34.261719 L 56.820312 35.714844 L 57.128906 37.300781 L 57.4375 39.019531 L 57.746094 40.878906 L 58.058594 42.882812 L 58.367188 45.078125 L 58.675781 47.445312 L 58.984375 49.96875 L 59.296875 52.652344 L 59.605469 55.5 L 59.914062 58.558594 L 60.222656 61.78125 L 60.53125 65.152344 L 60.84375 68.671875 L 61.152344 72.335938 L 61.460938 76.171875 L 61.769531 80.128906 L 62.082031 84.199219 L 62.390625 88.367188 L 62.699219 92.628906 L 63.007812 96.992188 L 63.320312 101.410156 L 63.628906 105.878906 L 63.9375 110.386719 L 64.246094 114.925781 L 64.558594 119.476562 L 64.867188 124.03125 L 65.175781 128.578125 L 65.484375 133.105469 L 65.796875 137.609375 L 66.105469 142.066406 L 66.414062 146.480469 L 66.722656 150.851562 L 67.035156 155.167969 L 67.34375 159.421875 L 67.652344 163.601562 L 67.960938 167.714844 L 68.273438 171.765625 L 68.582031 175.75 L 68.890625 179.65625 L 69.199219 183.480469 L 69.511719 187.234375 L 69.820312 190.914062 L 70.128906 194.527344 L 70.4375 198.058594 L 70.75 201.503906 L 71.058594 204.882812 L 71.367188 208.1875 L 71.675781 211.417969 L 71.988281 214.5625 L 72.296875 217.625 L 72.605469 220.609375 L 72.914062 223.523438 L 73.226562 226.355469 L 73.535156 229.09375 L 73.84375 231.746094 L 74.152344 234.316406 L 74.464844 236.800781 L 74.773438 239.203125 L 75.082031 241.5 L 75.390625 243.699219 L 75.703125 245.8125 L 76.011719 247.835938 L 76.320312 249.765625 L 76.628906 251.578125 L 76.941406 253.296875 L 77.25 254.921875 L 77.558594 256.449219 L 77.867188 257.886719 L 78.175781 259.203125 L 78.488281 260.425781 L 78.796875 261.554688 L 79.105469 262.597656 L 79.414062 263.550781 L 79.726562 264.394531 L 80.035156 265.152344 L 80.34375 265.835938 L 80.652344 266.441406 L 80.964844 266.976562 L 81.273438 267.425781 L 81.582031 267.8125 L 81.890625 268.148438 L 82.203125 268.433594 L 82.511719 268.671875 L 82.820312 268.863281 L 83.128906 269.027344 L 83.441406 269.167969 L 83.75 269.292969 L 84.058594 269.40625 L 84.367188 269.515625 L 84.679688 269.628906 L 84.988281 269.75 L 85.296875 269.886719 L 85.605469 270.046875 L 85.917969 270.234375 L 86.226562 270.453125 L 86.535156 270.703125 L 86.84375 270.988281 L 87.15625 271.316406 L 87.464844 271.6875 L 87.773438 272.097656 L 88.082031 272.546875 L 88.394531 273.035156 L 88.703125 273.566406 L 89.011719 274.132812 L 89.320312 274.734375 L 89.632812 275.363281 L 89.941406 276.019531 L 90.25 276.699219 L 90.558594 277.398438 L 90.871094 278.109375 L 91.179688 278.828125 L 91.796875 280.28125 L 92.109375 281 L 92.417969 281.710938 L 92.726562 282.414062 L 93.035156 283.097656 L 93.347656 283.761719 L 93.65625 284.402344 L 93.964844 285.019531 L 94.273438 285.613281 L 94.585938 286.179688 L 94.894531 286.707031 L 95.203125 287.207031 L 95.511719 287.679688 L 95.824219 288.121094 L 96.132812 288.535156 L 96.441406 288.90625 L 96.75 289.253906 L 97.058594 289.574219 L 97.371094 289.867188 L 97.679688 290.132812 L 97.988281 290.371094 L 98.296875 290.585938 L 98.609375 290.777344 L 98.917969 290.953125 L 99.226562 291.105469 L 99.535156 291.242188 L 99.847656 291.359375 L 100.15625 291.464844 L 100.464844 291.558594 L 100.773438 291.640625 L 101.085938 291.707031 L 101.394531 291.765625 L 101.703125 291.820312 L 102.011719 291.863281 L 102.324219 291.902344 L 102.632812 291.933594 L 102.941406 291.960938 L 103.25 291.984375 L 103.5625 292.003906 L 103.871094 292.019531 L 104.488281 292.042969 L 104.800781 292.050781 L 105.417969 292.066406 L 105.726562 292.070312 L 106.039062 292.074219 L 106.65625 292.082031 L 106.964844 292.082031 L 107.277344 292.085938 L 108.203125 292.085938 L 108.515625 292.089844 L 166.089844 292.089844 L 7.910156 292.089844 Z M 7.910156 278.675781 "/>
<path fill="none" stroke-width="1.066978" stroke-linecap="butt" stroke-linejoin="round" stroke="rgb(0%, 0%, 0%)" stroke-opacity="1" stroke-miterlimit="10" d="M 7.910156 278.675781 L 8.21875 277.976562 L 8.527344 277.25 L 8.835938 276.496094 L 9.148438 275.714844 L 9.457031 274.902344 L 9.765625 274.042969 L 10.074219 273.148438 L 10.386719 272.214844 L 10.695312 271.238281 L 11.003906 270.214844 L 11.3125 269.132812 L 11.625 268 L 11.933594 266.816406 L 12.242188 265.574219 L 12.550781 264.273438 L 12.863281 262.894531 L 13.171875 261.453125 L 13.480469 259.949219 L 13.789062 258.375 L 14.101562 256.726562 L 14.410156 254.988281 L 14.71875 253.179688 L 15.027344 251.292969 L 15.339844 249.332031 L 15.648438 247.285156 L 15.957031 245.144531 L 16.265625 242.921875 L 16.578125 240.621094 L 16.886719 238.238281 L 17.195312 235.761719 L 17.503906 233.1875 L 17.816406 230.535156 L 18.125 227.796875 L 18.433594 224.976562 L 18.742188 222.0625 L 19.054688 219.050781 L 19.363281 215.957031 L 19.671875 212.785156 L 19.980469 209.535156 L 20.292969 206.1875 L 20.601562 202.753906 L 20.910156 199.246094 L 21.21875 195.660156 L 21.53125 192.007812 L 21.839844 188.265625 L 22.148438 184.453125 L 22.457031 180.582031 L 22.769531 176.648438 L 23.078125 172.660156 L 23.386719 168.613281 L 23.695312 164.519531 L 24.007812 160.386719 L 24.316406 156.226562 L 24.625 152.039062 L 24.933594 147.828125 L 25.242188 143.613281 L 25.554688 139.398438 L 25.863281 135.191406 L 26.171875 130.996094 L 26.480469 126.835938 L 26.792969 122.714844 L 27.101562 118.636719 L 27.410156 114.609375 L 27.71875 110.640625 L 28.03125 106.757812 L 28.339844 102.953125 L 28.648438 99.226562 L 28.957031 95.585938 L 29.269531 92.035156 L 29.578125 88.609375 L 29.886719 85.277344 L 30.195312 82.046875 L 30.507812 78.910156 L 30.816406 75.882812 L 31.125 72.976562 L 31.433594 70.164062 L 31.746094 67.445312 L 32.054688 64.816406 L 32.363281 62.28125 L 32.671875 59.84375 L 32.984375 57.480469 L 33.292969 55.1875 L 33.601562 52.964844 L 33.910156 50.8125 L 34.222656 48.726562 L 34.53125 46.695312 L 34.839844 44.714844 L 35.148438 42.78125 L 35.460938 40.902344 L 35.769531 39.074219 L 36.078125 37.292969 L 36.386719 35.558594 L 36.699219 33.867188 L 37.007812 32.234375 L 37.316406 30.660156 L 37.625 29.136719 L 37.9375 27.671875 L 38.246094 26.261719 L 38.554688 24.929688 L 38.863281 23.671875 L 39.175781 22.480469 L 39.484375 21.359375 L 39.792969 20.316406 L 40.101562 19.363281 L 40.414062 18.492188 L 40.722656 17.703125 L 41.03125 16.988281 L 41.339844 16.347656 L 41.652344 15.804688 L 41.960938 15.335938 L 42.269531 14.941406 L 42.578125 14.609375 L 42.886719 14.34375 L 43.199219 14.15625 L 43.507812 14.023438 L 43.816406 13.941406 L 44.125 13.910156 L 44.4375 13.921875 L 44.746094 13.984375 L 45.054688 14.085938 L 45.363281 14.21875 L 45.675781 14.378906 L 45.984375 14.570312 L 46.292969 14.792969 L 46.601562 15.039062 L 46.914062 15.304688 L 47.222656 15.589844 L 47.53125 15.898438 L 47.839844 16.226562 L 48.152344 16.574219 L 48.460938 16.9375 L 48.769531 17.316406 L 49.078125 17.714844 L 49.390625 18.128906 L 49.699219 18.554688 L 50.007812 18.996094 L 50.316406 19.453125 L 50.628906 19.921875 L 50.9375 20.40625 L 51.246094 20.90625 L 51.554688 21.414062 L 51.867188 21.941406 L 52.175781 22.484375 L 52.484375 23.046875 L 52.792969 23.628906 L 53.105469 24.230469 L 53.414062 24.863281 L 53.722656 25.53125 L 54.03125 26.238281 L 54.34375 26.992188 L 54.652344 27.796875 L 54.960938 28.660156 L 55.269531 29.601562 L 55.582031 30.628906 L 55.890625 31.742188 L 56.199219 32.949219 L 56.507812 34.261719 L 56.820312 35.714844 L 57.128906 37.300781 L 57.4375 39.019531 L 57.746094 40.878906 L 58.058594 42.882812 L 58.367188 45.078125 L 58.675781 47.445312 L 58.984375 49.96875 L 59.296875 52.652344 L 59.605469 55.5 L 59.914062 58.558594 L 60.222656 61.78125 L 60.53125 65.152344 L 60.84375 68.671875 L 61.152344 72.335938 L 61.460938 76.171875 L 61.769531 80.128906 L 62.082031 84.199219 L 62.390625 88.367188 L 62.699219 92.628906 L 63.007812 96.992188 L 63.320312 101.410156 L 63.628906 105.878906 L 63.9375 110.386719 L 64.246094 114.925781 L 64.558594 119.476562 L 64.867188 124.03125 L 65.175781 128.578125 L 65.484375 133.105469 L 65.796875 137.609375 L 66.105469 142.066406 L 66.414062 146.480469 L 66.722656 150.851562 L 67.035156 155.167969 L 67.34375 159.421875 L 67.652344 163.601562 L 67.960938 167.714844 L 68.273438 171.765625 L 68.582031 175.75 L 68.890625 179.65625 L 69.199219 183.480469 L 69.511719 187.234375 L 69.820312 190.914062 L 70.128906 194.527344 L 70.4375 198.058594 L 70.75 201.503906 L 71.058594 204.882812 L 71.367188 208.1875 L 71.675781 211.417969 L 71.988281 214.5625 L 72.296875 217.625 L 72.605469 220.609375 L 72.914062 223.523438 L 73.226562 226.355469 L 73.535156 229.09375 L 73.84375 231.746094 L 74.152344 234.316406 L 74.464844 236.800781 L 74.773438 239.203125 L 75.082031 241.5 L 75.390625 243.699219 L 75.703125 245.8125 L 76.011719 247.835938 L 76.320312 249.765625 L 76.628906 251.578125 L 76.941406 253.296875 L 77.25 254.921875 L 77.558594 256.449219 L 77.867188 257.886719 L 78.175781 259.203125 L 78.488281 260.425781 L 78.796875 261.554688 L 79.105469 262.597656 L 79.414062 263.550781 L 79.726562 264.394531 L 80.035156 265.152344 L 80.34375 265.835938 L 80.652344 266.441406 L 80.964844 266.976562 L 81.273438 267.425781 L 81.582031 267.8125 L 81.890625 268.148438 L 82.203125 268.433594 L 82.511719 268.671875 L 82.820312 268.863281 L 83.128906 269.027344 L 83.441406 269.167969 L 83.75 269.292969 L 84.058594 269.40625 L 84.367188 269.515625 L 84.679688 269.628906 L 84.988281 269.75 L 85.296875 269.886719 L 85.605469 270.046875 L 85.917969 270.234375 L 86.226562 270.453125 L 86.535156 270.703125 L 86.84375 270.988281 L 87.15625 271.316406 L 87.464844 271.6875 L 87.773438 272.097656 L 88.082031 272.546875 L 88.394531 273.035156 L 88.703125 273.566406 L 89.011719 274.132812 L 89.320312 274.734375 L 89.632812 275.363281 L 89.941406 276.019531 L 90.25 276.699219 L 90.558594 277.398438 L 90.871094 278.109375 L 91.179688 278.828125 L 91.796875 280.28125 L 92.109375 281 L 92.417969 281.710938 L 92.726562 282.414062 L 93.035156 283.097656 L 93.347656 283.761719 L 93.65625 284.402344 L 93.964844 285.019531 L 94.273438 285.613281 L 94.585938 286.179688 L 94.894531 286.707031 L 95.203125 287.207031 L 95.511719 287.679688 L 95.824219 288.121094 L 96.132812 288.535156 L 96.441406 288.90625 L 96.75 289.253906 L 97.058594 289.574219 L 97.371094 289.867188 L 97.679688 290.132812 L 97.988281 290.371094 L 98.296875 290.585938 L 98.609375 290.777344 L 98.917969 290.953125 L 99.226562 291.105469 L 99.535156 291.242188 L 99.847656 291.359375 L 100.15625 291.464844 L 100.464844 291.558594 L 100.773438 291.640625 L 101.085938 291.707031 L 101.394531 291.765625 L 101.703125 291.820312 L 102.011719 291.863281 L 102.324219 291.902344 L 102.632812 291.933594 L 102.941406 291.960938 L 103.25 291.984375 L 103.5625 292.003906 L 103.871094 292.019531 L 104.488281 292.042969 L 104.800781 292.050781 L 105.417969 292.066406 L 105.726562 292.070312 L 106.039062 292.074219 L 106.65625 292.082031 L 106.964844 292.082031 L 107.277344 292.085938 L 108.203125 292.085938 L 108.515625 292.089844 L 166.089844 292.089844 "/>
<path fill-rule="nonzero" fill="rgb(0%, 72.941176%, 21.960784%)" fill-opacity="0.501961" d="M 7.910156 292.089844 L 28.339844 292.089844 L 28.648438 292.085938 L 29.886719 292.085938 L 30.195312 292.082031 L 30.816406 292.082031 L 31.125 292.078125 L 31.433594 292.078125 L 31.746094 292.074219 L 32.054688 292.074219 L 32.671875 292.066406 L 32.984375 292.0625 L 33.910156 292.050781 L 34.222656 292.042969 L 35.148438 292.019531 L 35.460938 292.007812 L 36.078125 291.984375 L 36.386719 291.96875 L 36.699219 291.953125 L 37.007812 291.9375 L 37.316406 291.917969 L 37.625 291.894531 L 37.9375 291.871094 L 38.246094 291.84375 L 38.554688 291.8125 L 38.863281 291.777344 L 39.175781 291.742188 L 39.792969 291.65625 L 40.101562 291.605469 L 40.414062 291.550781 L 40.722656 291.492188 L 41.03125 291.425781 L 41.339844 291.355469 L 41.652344 291.28125 L 41.960938 291.195312 L 42.269531 291.101562 L 42.578125 291.003906 L 42.886719 290.898438 L 43.199219 290.78125 L 43.507812 290.65625 L 43.816406 290.523438 L 44.125 290.378906 L 44.4375 290.226562 L 44.746094 290.058594 L 45.054688 289.882812 L 45.363281 289.691406 L 45.675781 289.488281 L 45.984375 289.273438 L 46.292969 289.046875 L 46.601562 288.800781 L 46.914062 288.542969 L 47.222656 288.269531 L 47.53125 287.980469 L 47.839844 287.671875 L 48.152344 287.351562 L 48.460938 287.011719 L 48.769531 286.652344 L 49.078125 286.273438 L 49.390625 285.882812 L 49.699219 285.46875 L 50.007812 285.03125 L 50.316406 284.578125 L 50.628906 284.109375 L 50.9375 283.613281 L 51.246094 283.097656 L 51.554688 282.5625 L 51.867188 282.007812 L 52.175781 281.425781 L 52.484375 280.824219 L 52.792969 280.203125 L 53.105469 279.558594 L 53.414062 278.890625 L 53.722656 278.203125 L 54.03125 277.496094 L 54.34375 276.765625 L 54.652344 276.007812 L 54.960938 275.238281 L 55.269531 274.445312 L 55.582031 273.628906 L 55.890625 272.789062 L 56.199219 271.9375 L 56.507812 271.066406 L 56.820312 270.171875 L 57.128906 269.261719 L 57.4375 268.335938 L 57.746094 267.394531 L 58.058594 266.433594 L 58.367188 265.464844 L 58.675781 264.480469 L 58.984375 263.484375 L 59.296875 262.476562 L 59.605469 261.464844 L 59.914062 260.441406 L 60.222656 259.414062 L 60.53125 258.382812 L 60.84375 257.347656 L 61.769531 254.242188 L 62.082031 253.210938 L 62.390625 252.1875 L 62.699219 251.167969 L 63.007812 250.15625 L 63.320312 249.15625 L 63.628906 248.167969 L 63.9375 247.191406 L 64.246094 246.226562 L 64.558594 245.277344 L 64.867188 244.34375 L 65.175781 243.421875 L 65.484375 242.515625 L 65.796875 241.628906 L 66.105469 240.757812 L 66.414062 239.898438 L 66.722656 239.050781 L 67.035156 238.222656 L 67.34375 237.402344 L 67.652344 236.59375 L 67.960938 235.792969 L 68.273438 234.996094 L 68.582031 234.203125 L 68.890625 233.414062 L 69.199219 232.617188 L 69.511719 231.816406 L 69.820312 231.003906 L 70.128906 230.175781 L 70.4375 229.328125 L 70.75 228.457031 L 71.058594 227.5625 L 71.367188 226.628906 L 71.675781 225.65625 L 71.988281 224.644531 L 72.296875 223.59375 L 72.605469 222.46875 L 72.914062 221.292969 L 73.226562 220.0625 L 73.535156 218.757812 L 73.84375 217.371094 L 74.152344 215.917969 L 74.464844 214.394531 L 74.773438 212.765625 L 75.082031 211.050781 L 75.390625 209.261719 L 75.703125 207.382812 L 76.011719 205.382812 L 76.320312 203.300781 L 76.628906 201.136719 L 76.941406 198.867188 L 77.25 196.492188 L 77.558594 194.035156 L 77.867188 191.5 L 78.175781 188.851562 L 78.488281 186.125 L 78.796875 183.332031 L 79.105469 180.464844 L 79.414062 177.507812 L 79.726562 174.5 L 80.035156 171.445312 L 80.34375 168.335938 L 80.652344 165.183594 L 80.964844 162.003906 L 81.273438 158.804688 L 81.582031 155.589844 L 81.890625 152.378906 L 82.203125 149.171875 L 82.511719 145.984375 L 82.820312 142.832031 L 83.128906 139.71875 L 83.441406 136.648438 L 83.75 133.644531 L 84.058594 130.722656 L 84.367188 127.875 L 84.679688 125.105469 L 84.988281 122.464844 L 85.296875 119.933594 L 85.605469 117.503906 L 85.917969 115.191406 L 86.226562 113.054688 L 86.535156 111.042969 L 86.84375 109.15625 L 87.15625 107.4375 L 87.464844 105.898438 L 87.773438 104.492188 L 88.082031 103.226562 L 88.394531 102.171875 L 88.703125 101.269531 L 89.011719 100.511719 L 89.320312 99.90625 L 89.632812 99.503906 L 89.941406 99.234375 L 90.25 99.09375 L 90.558594 99.121094 L 90.871094 99.300781 L 91.179688 99.589844 L 91.488281 99.992188 L 91.796875 100.546875 L 92.109375 101.195312 L 92.417969 101.925781 L 92.726562 102.746094 L 93.035156 103.660156 L 93.347656 104.621094 L 93.65625 105.632812 L 93.964844 106.691406 L 94.273438 107.777344 L 94.585938 108.875 L 94.894531 109.976562 L 95.203125 111.066406 L 95.511719 112.132812 L 95.824219 113.167969 L 96.132812 114.164062 L 96.441406 115.082031 L 96.75 115.941406 L 97.058594 116.730469 L 97.371094 117.417969 L 97.679688 117.996094 L 97.988281 118.480469 L 98.296875 118.867188 L 98.609375 119.085938 L 98.917969 119.183594 L 99.226562 119.164062 L 99.535156 119.003906 L 99.847656 118.65625 L 100.15625 118.179688 L 100.464844 117.574219 L 100.773438 116.785156 L 101.085938 115.832031 L 101.394531 114.742188 L 101.703125 113.519531 L 102.011719 112.09375 L 102.324219 110.53125 L 102.632812 108.84375 L 102.941406 107.011719 L 103.25 105.011719 L 103.5625 102.898438 L 103.871094 100.679688 L 104.179688 98.320312 L 104.488281 95.847656 L 104.800781 93.292969 L 105.109375 90.652344 L 105.417969 87.90625 L 105.726562 85.097656 L 106.039062 82.242188 L 106.347656 79.328125 L 106.65625 76.375 L 106.964844 73.398438 L 107.277344 70.410156 L 107.585938 67.414062 L 107.894531 64.433594 L 108.203125 61.476562 L 108.515625 58.542969 L 108.824219 55.671875 L 109.132812 52.859375 L 109.441406 50.105469 L 109.753906 47.433594 L 110.0625 44.875 L 110.371094 42.410156 L 110.679688 40.042969 L 110.992188 37.828125 L 111.300781 35.753906 L 111.609375 33.808594 L 111.917969 31.992188 L 112.230469 30.398438 L 112.539062 28.957031 L 112.847656 27.664062 L 113.15625 26.5625 L 113.46875 25.695312 L 113.777344 24.996094 L 114.085938 24.46875 L 114.394531 24.183594 L 114.703125 24.121094 L 115.015625 24.234375 L 115.324219 24.53125 L 115.632812 25.125 L 115.941406 25.898438 L 116.253906 26.859375 L 116.5625 28.039062 L 116.871094 29.46875 L 117.179688 31.078125 L 117.492188 32.867188 L 117.800781 34.898438 L 118.109375 37.128906 L 118.417969 39.527344 L 118.730469 42.085938 L 119.039062 44.894531 L 119.347656 47.847656 L 119.65625 50.945312 L 119.96875 54.210938 L 120.277344 57.65625 L 120.585938 61.21875 L 120.894531 64.902344 L 121.207031 68.738281 L 121.515625 72.6875 L 121.824219 76.730469 L 122.132812 80.859375 L 122.445312 85.109375 L 122.753906 89.421875 L 123.0625 93.792969 L 123.371094 98.230469 L 123.683594 102.722656 L 123.992188 107.246094 L 124.300781 111.796875 L 124.609375 116.371094 L 124.921875 120.957031 L 125.230469 125.546875 L 125.539062 130.132812 L 125.847656 134.695312 L 126.160156 139.238281 L 126.46875 143.757812 L 126.777344 148.238281 L 127.085938 152.664062 L 127.398438 157.046875 L 127.707031 161.378906 L 128.015625 165.632812 L 128.324219 169.820312 L 128.636719 173.945312 L 128.945312 177.996094 L 129.253906 181.941406 L 129.5625 185.8125 L 129.875 189.605469 L 130.183594 193.300781 L 130.492188 196.890625 L 130.800781 200.390625 L 131.113281 203.8125 L 131.421875 207.105469 L 131.730469 210.304688 L 132.039062 213.414062 L 132.347656 216.433594 L 132.660156 219.316406 L 132.96875 222.113281 L 133.277344 224.828125 L 133.585938 227.429688 L 133.898438 229.921875 L 134.207031 232.332031 L 134.515625 234.65625 L 134.824219 236.863281 L 135.136719 238.984375 L 135.445312 241.027344 L 135.753906 242.984375 L 136.0625 244.835938 L 136.375 246.613281 L 136.683594 248.320312 L 136.992188 249.941406 L 137.300781 251.476562 L 137.613281 252.949219 L 137.921875 254.359375 L 138.230469 255.683594 L 138.539062 256.945312 L 138.851562 258.15625 L 139.160156 259.304688 L 139.46875 260.382812 L 139.777344 261.410156 L 140.089844 262.394531 L 140.398438 263.320312 L 140.707031 264.191406 L 141.015625 265.023438 L 141.328125 265.820312 L 141.636719 266.5625 L 141.945312 267.265625 L 142.253906 267.9375 L 142.566406 268.574219 L 142.875 269.167969 L 143.183594 269.734375 L 143.492188 270.273438 L 143.804688 270.78125 L 144.113281 271.257812 L 144.421875 271.714844 L 144.730469 272.148438 L 145.042969 272.550781 L 145.351562 272.933594 L 145.660156 273.296875 L 145.96875 273.640625 L 146.28125 273.960938 L 146.589844 274.265625 L 146.898438 274.558594 L 147.207031 274.832031 L 147.519531 275.085938 L 147.828125 275.332031 L 148.136719 275.566406 L 148.445312 275.78125 L 148.757812 275.988281 L 149.066406 276.183594 L 149.375 276.371094 L 149.683594 276.546875 L 149.992188 276.714844 L 150.304688 276.878906 L 150.613281 277.03125 L 150.921875 277.179688 L 151.230469 277.324219 L 151.542969 277.460938 L 151.851562 277.597656 L 152.160156 277.730469 L 152.46875 277.859375 L 152.78125 277.988281 L 153.089844 278.117188 L 153.398438 278.25 L 153.707031 278.378906 L 154.019531 278.511719 L 154.636719 278.785156 L 154.945312 278.929688 L 155.257812 279.078125 L 155.566406 279.230469 L 155.875 279.386719 L 156.183594 279.550781 L 156.496094 279.71875 L 157.113281 280.078125 L 157.421875 280.269531 L 157.734375 280.46875 L 158.042969 280.671875 L 158.351562 280.886719 L 158.660156 281.105469 L 158.972656 281.332031 L 159.28125 281.566406 L 159.589844 281.804688 L 159.898438 282.050781 L 160.210938 282.304688 L 160.519531 282.5625 L 160.828125 282.824219 L 161.136719 283.089844 L 161.449219 283.363281 L 161.757812 283.636719 L 162.375 284.191406 L 162.6875 284.46875 L 163.613281 285.3125 L 163.925781 285.589844 L 164.234375 285.867188 L 164.542969 286.136719 L 164.851562 286.410156 L 165.164062 286.675781 L 165.472656 286.9375 L 165.78125 287.195312 L 166.089844 287.445312 L 166.089844 292.089844 Z M 7.910156 292.089844 "/>
<path fill="none" stroke-width="1.066978" stroke-linecap="butt" stroke-linejoin="round" stroke="rgb(0%, 0%, 0%)" stroke-opacity="1" stroke-miterlimit="10" d="M 7.910156 292.089844 L 28.339844 292.089844 L 28.648438 292.085938 L 29.886719 292.085938 L 30.195312 292.082031 L 30.816406 292.082031 L 31.125 292.078125 L 31.433594 292.078125 L 31.746094 292.074219 L 32.054688 292.074219 L 32.671875 292.066406 L 32.984375 292.0625 L 33.910156 292.050781 L 34.222656 292.042969 L 35.148438 292.019531 L 35.460938 292.007812 L 36.078125 291.984375 L 36.386719 291.96875 L 36.699219 291.953125 L 37.007812 291.9375 L 37.316406 291.917969 L 37.625 291.894531 L 37.9375 291.871094 L 38.246094 291.84375 L 38.554688 291.8125 L 38.863281 291.777344 L 39.175781 291.742188 L 39.792969 291.65625 L 40.101562 291.605469 L 40.414062 291.550781 L 40.722656 291.492188 L 41.03125 291.425781 L 41.339844 291.355469 L 41.652344 291.28125 L 41.960938 291.195312 L 42.269531 291.101562 L 42.578125 291.003906 L 42.886719 290.898438 L 43.199219 290.78125 L 43.507812 290.65625 L 43.816406 290.523438 L 44.125 290.378906 L 44.4375 290.226562 L 44.746094 290.058594 L 45.054688 289.882812 L 45.363281 289.691406 L 45.675781 289.488281 L 45.984375 289.273438 L 46.292969 289.046875 L 46.601562 288.800781 L 46.914062 288.542969 L 47.222656 288.269531 L 47.53125 287.980469 L 47.839844 287.671875 L 48.152344 287.351562 L 48.460938 287.011719 L 48.769531 286.652344 L 49.078125 286.273438 L 49.390625 285.882812 L 49.699219 285.46875 L 50.007812 285.03125 L 50.316406 284.578125 L 50.628906 284.109375 L 50.9375 283.613281 L 51.246094 283.097656 L 51.554688 282.5625 L 51.867188 282.007812 L 52.175781 281.425781 L 52.484375 280.824219 L 52.792969 280.203125 L 53.105469 279.558594 L 53.414062 278.890625 L 53.722656 278.203125 L 54.03125 277.496094 L 54.34375 276.765625 L 54.652344 276.007812 L 54.960938 275.238281 L 55.269531 274.445312 L 55.582031 273.628906 L 55.890625 272.789062 L 56.199219 271.9375 L 56.507812 271.066406 L 56.820312 270.171875 L 57.128906 269.261719 L 57.4375 268.335938 L 57.746094 267.394531 L 58.058594 266.433594 L 58.367188 265.464844 L 58.675781 264.480469 L 58.984375 263.484375 L 59.296875 262.476562 L 59.605469 261.464844 L 59.914062 260.441406 L 60.222656 259.414062 L 60.53125 258.382812 L 60.84375 257.347656 L 61.769531 254.242188 L 62.082031 253.210938 L 62.390625 252.1875 L 62.699219 251.167969 L 63.007812 250.15625 L 63.320312 249.15625 L 63.628906 248.167969 L 63.9375 247.191406 L 64.246094 246.226562 L 64.558594 245.277344 L 64.867188 244.34375 L 65.175781 243.421875 L 65.484375 242.515625 L 65.796875 241.628906 L 66.105469 240.757812 L 66.414062 239.898438 L 66.722656 239.050781 L 67.035156 238.222656 L 67.34375 237.402344 L 67.652344 236.59375 L 67.960938 235.792969 L 68.273438 234.996094 L 68.582031 234.203125 L 68.890625 233.414062 L 69.199219 232.617188 L 69.511719 231.816406 L 69.820312 231.003906 L 70.128906 230.175781 L 70.4375 229.328125 L 70.75 228.457031 L 71.058594 227.5625 L 71.367188 226.628906 L 71.675781 225.65625 L 71.988281 224.644531 L 72.296875 223.59375 L 72.605469 222.46875 L 72.914062 221.292969 L 73.226562 220.0625 L 73.535156 218.757812 L 73.84375 217.371094 L 74.152344 215.917969 L 74.464844 214.394531 L 74.773438 212.765625 L 75.082031 211.050781 L 75.390625 209.261719 L 75.703125 207.382812 L 76.011719 205.382812 L 76.320312 203.300781 L 76.628906 201.136719 L 76.941406 198.867188 L 77.25 196.492188 L 77.558594 194.035156 L 77.867188 191.5 L 78.175781 188.851562 L 78.488281 186.125 L 78.796875 183.332031 L 79.105469 180.464844 L 79.414062 177.507812 L 79.726562 174.5 L 80.035156 171.445312 L 80.34375 168.335938 L 80.652344 165.183594 L 80.964844 162.003906 L 81.273438 158.804688 L 81.582031 155.589844 L 81.890625 152.378906 L 82.203125 149.171875 L 82.511719 145.984375 L 82.820312 142.832031 L 83.128906 139.71875 L 83.441406 136.648438 L 83.75 133.644531 L 84.058594 130.722656 L 84.367188 127.875 L 84.679688 125.105469 L 84.988281 122.464844 L 85.296875 119.933594 L 85.605469 117.503906 L 85.917969 115.191406 L 86.226562 113.054688 L 86.535156 111.042969 L 86.84375 109.15625 L 87.15625 107.4375 L 87.464844 105.898438 L 87.773438 104.492188 L 88.082031 103.226562 L 88.394531 102.171875 L 88.703125 101.269531 L 89.011719 100.511719 L 89.320312 99.90625 L 89.632812 99.503906 L 89.941406 99.234375 L 90.25 99.09375 L 90.558594 99.121094 L 90.871094 99.300781 L 91.179688 99.589844 L 91.488281 99.992188 L 91.796875 100.546875 L 92.109375 101.195312 L 92.417969 101.925781 L 92.726562 102.746094 L 93.035156 103.660156 L 93.347656 104.621094 L 93.65625 105.632812 L 93.964844 106.691406 L 94.273438 107.777344 L 94.585938 108.875 L 94.894531 109.976562 L 95.203125 111.066406 L 95.511719 112.132812 L 95.824219 113.167969 L 96.132812 114.164062 L 96.441406 115.082031 L 96.75 115.941406 L 97.058594 116.730469 L 97.371094 117.417969 L 97.679688 117.996094 L 97.988281 118.480469 L 98.296875 118.867188 L 98.609375 119.085938 L 98.917969 119.183594 L 99.226562 119.164062 L 99.535156 119.003906 L 99.847656 118.65625 L 100.15625 118.179688 L 100.464844 117.574219 L 100.773438 116.785156 L 101.085938 115.832031 L 101.394531 114.742188 L 101.703125 113.519531 L 102.011719 112.09375 L 102.324219 110.53125 L 102.632812 108.84375 L 102.941406 107.011719 L 103.25 105.011719 L 103.5625 102.898438 L 103.871094 100.679688 L 104.179688 98.320312 L 104.488281 95.847656 L 104.800781 93.292969 L 105.109375 90.652344 L 105.417969 87.90625 L 105.726562 85.097656 L 106.039062 82.242188 L 106.347656 79.328125 L 106.65625 76.375 L 106.964844 73.398438 L 107.277344 70.410156 L 107.585938 67.414062 L 107.894531 64.433594 L 108.203125 61.476562 L 108.515625 58.542969 L 108.824219 55.671875 L 109.132812 52.859375 L 109.441406 50.105469 L 109.753906 47.433594 L 110.0625 44.875 L 110.371094 42.410156 L 110.679688 40.042969 L 110.992188 37.828125 L 111.300781 35.753906 L 111.609375 33.808594 L 111.917969 31.992188 L 112.230469 30.398438 L 112.539062 28.957031 L 112.847656 27.664062 L 113.15625 26.5625 L 113.46875 25.695312 L 113.777344 24.996094 L 114.085938 24.46875 L 114.394531 24.183594 L 114.703125 24.121094 L 115.015625 24.234375 L 115.324219 24.53125 L 115.632812 25.125 L 115.941406 25.898438 L 116.253906 26.859375 L 116.5625 28.039062 L 116.871094 29.46875 L 117.179688 31.078125 L 117.492188 32.867188 L 117.800781 34.898438 L 118.109375 37.128906 L 118.417969 39.527344 L 118.730469 42.085938 L 119.039062 44.894531 L 119.347656 47.847656 L 119.65625 50.945312 L 119.96875 54.210938 L 120.277344 57.65625 L 120.585938 61.21875 L 120.894531 64.902344 L 121.207031 68.738281 L 121.515625 72.6875 L 121.824219 76.730469 L 122.132812 80.859375 L 122.445312 85.109375 L 122.753906 89.421875 L 123.0625 93.792969 L 123.371094 98.230469 L 123.683594 102.722656 L 123.992188 107.246094 L 124.300781 111.796875 L 124.609375 116.371094 L 124.921875 120.957031 L 125.230469 125.546875 L 125.539062 130.132812 L 125.847656 134.695312 L 126.160156 139.238281 L 126.46875 143.757812 L 126.777344 148.238281 L 127.085938 152.664062 L 127.398438 157.046875 L 127.707031 161.378906 L 128.015625 165.632812 L 128.324219 169.820312 L 128.636719 173.945312 L 128.945312 177.996094 L 129.253906 181.941406 L 129.5625 185.8125 L 129.875 189.605469 L 130.183594 193.300781 L 130.492188 196.890625 L 130.800781 200.390625 L 131.113281 203.8125 L 131.421875 207.105469 L 131.730469 210.304688 L 132.039062 213.414062 L 132.347656 216.433594 L 132.660156 219.316406 L 132.96875 222.113281 L 133.277344 224.828125 L 133.585938 227.429688 L 133.898438 229.921875 L 134.207031 232.332031 L 134.515625 234.65625 L 134.824219 236.863281 L 135.136719 238.984375 L 135.445312 241.027344 L 135.753906 242.984375 L 136.0625 244.835938 L 136.375 246.613281 L 136.683594 248.320312 L 136.992188 249.941406 L 137.300781 251.476562 L 137.613281 252.949219 L 137.921875 254.359375 L 138.230469 255.683594 L 138.539062 256.945312 L 138.851562 258.15625 L 139.160156 259.304688 L 139.46875 260.382812 L 139.777344 261.410156 L 140.089844 262.394531 L 140.398438 263.320312 L 140.707031 264.191406 L 141.015625 265.023438 L 141.328125 265.820312 L 141.636719 266.5625 L 141.945312 267.265625 L 142.253906 267.9375 L 142.566406 268.574219 L 142.875 269.167969 L 143.183594 269.734375 L 143.492188 270.273438 L 143.804688 270.78125 L 144.113281 271.257812 L 144.421875 271.714844 L 144.730469 272.148438 L 145.042969 272.550781 L 145.351562 272.933594 L 145.660156 273.296875 L 145.96875 273.640625 L 146.28125 273.960938 L 146.589844 274.265625 L 146.898438 274.558594 L 147.207031 274.832031 L 147.519531 275.085938 L 147.828125 275.332031 L 148.136719 275.566406 L 148.445312 275.78125 L 148.757812 275.988281 L 149.066406 276.183594 L 149.375 276.371094 L 149.683594 276.546875 L 149.992188 276.714844 L 150.304688 276.878906 L 150.613281 277.03125 L 150.921875 277.179688 L 151.230469 277.324219 L 151.542969 277.460938 L 151.851562 277.597656 L 152.160156 277.730469 L 152.46875 277.859375 L 152.78125 277.988281 L 153.089844 278.117188 L 153.398438 278.25 L 153.707031 278.378906 L 154.019531 278.511719 L 154.636719 278.785156 L 154.945312 278.929688 L 155.257812 279.078125 L 155.566406 279.230469 L 155.875 279.386719 L 156.183594 279.550781 L 156.496094 279.71875 L 157.113281 280.078125 L 157.421875 280.269531 L 157.734375 280.46875 L 158.042969 280.671875 L 158.351562 280.886719 L 158.660156 281.105469 L 158.972656 281.332031 L 159.28125 281.566406 L 159.589844 281.804688 L 159.898438 282.050781 L 160.210938 282.304688 L 160.519531 282.5625 L 160.828125 282.824219 L 161.136719 283.089844 L 161.449219 283.363281 L 161.757812 283.636719 L 162.375 284.191406 L 162.6875 284.46875 L 163.613281 285.3125 L 163.925781 285.589844 L 164.234375 285.867188 L 164.542969 286.136719 L 164.851562 286.410156 L 165.164062 286.675781 L 165.472656 286.9375 L 165.78125 287.195312 L 166.089844 287.445312 "/>
<path fill-rule="nonzero" fill="rgb(38.039216%, 61.176471%, 100%)" fill-opacity="0.501961" d="M 7.910156 292.089844 L 34.53125 292.089844 L 34.839844 292.085938 L 35.769531 292.085938 L 36.078125 292.082031 L 36.386719 292.082031 L 36.699219 292.078125 L 37.007812 292.078125 L 37.625 292.070312 L 37.9375 292.066406 L 38.554688 292.058594 L 38.863281 292.050781 L 39.175781 292.042969 L 39.792969 292.027344 L 40.101562 292.015625 L 40.414062 292.003906 L 41.03125 291.972656 L 41.339844 291.953125 L 41.652344 291.929688 L 41.960938 291.90625 L 42.578125 291.84375 L 42.886719 291.808594 L 43.199219 291.765625 L 43.507812 291.71875 L 43.816406 291.667969 L 44.125 291.609375 L 44.4375 291.542969 L 44.746094 291.472656 L 45.054688 291.394531 L 45.363281 291.304688 L 45.675781 291.203125 L 45.984375 291.097656 L 46.292969 290.980469 L 46.601562 290.847656 L 46.914062 290.703125 L 47.222656 290.546875 L 47.53125 290.378906 L 47.839844 290.191406 L 48.152344 289.988281 L 48.460938 289.769531 L 48.769531 289.535156 L 49.078125 289.28125 L 49.390625 289.003906 L 49.699219 288.710938 L 50.007812 288.394531 L 50.316406 288.058594 L 50.628906 287.695312 L 50.9375 287.308594 L 51.246094 286.898438 L 51.554688 286.464844 L 51.867188 285.996094 L 52.175781 285.503906 L 52.484375 284.984375 L 52.792969 284.4375 L 53.105469 283.855469 L 53.414062 283.238281 L 53.722656 282.597656 L 54.03125 281.921875 L 54.34375 281.210938 L 54.652344 280.460938 L 54.960938 279.675781 L 55.269531 278.859375 L 55.582031 278.003906 L 55.890625 277.101562 L 56.199219 276.164062 L 56.507812 275.1875 L 56.820312 274.167969 L 57.128906 273.097656 L 57.4375 271.988281 L 57.746094 270.832031 L 58.058594 269.640625 L 58.367188 268.382812 L 58.675781 267.082031 L 58.984375 265.734375 L 59.296875 264.339844 L 59.605469 262.886719 L 59.914062 261.375 L 60.222656 259.816406 L 60.53125 258.210938 L 60.84375 256.546875 L 61.152344 254.820312 L 61.460938 253.042969 L 61.769531 251.214844 L 62.082031 249.335938 L 62.390625 247.390625 L 62.699219 245.398438 L 63.007812 243.355469 L 63.320312 241.269531 L 63.628906 239.117188 L 63.9375 236.921875 L 64.246094 234.6875 L 64.558594 232.410156 L 64.867188 230.082031 L 65.175781 227.71875 L 65.484375 225.320312 L 65.796875 222.890625 L 66.105469 220.429688 L 66.414062 217.9375 L 66.722656 215.421875 L 67.035156 212.886719 L 67.34375 210.335938 L 67.652344 207.761719 L 67.960938 205.171875 L 68.273438 202.578125 L 68.582031 199.96875 L 68.890625 197.355469 L 69.199219 194.730469 L 69.511719 192.105469 L 69.820312 189.472656 L 70.128906 186.835938 L 70.4375 184.191406 L 70.75 181.542969 L 71.058594 178.886719 L 71.367188 176.222656 L 71.675781 173.546875 L 71.988281 170.859375 L 72.296875 168.15625 L 72.605469 165.4375 L 72.914062 162.691406 L 73.226562 159.921875 L 73.535156 157.125 L 73.84375 154.300781 L 74.152344 151.433594 L 74.464844 148.53125 L 74.773438 145.589844 L 75.082031 142.609375 L 75.390625 139.574219 L 75.703125 136.492188 L 76.011719 133.363281 L 76.320312 130.195312 L 76.628906 126.96875 L 76.941406 123.691406 L 77.25 120.371094 L 77.558594 117.011719 L 77.867188 113.613281 L 78.175781 110.167969 L 78.488281 106.695312 L 78.796875 103.199219 L 79.105469 99.6875 L 79.414062 96.15625 L 79.726562 92.621094 L 80.035156 89.089844 L 80.34375 85.570312 L 80.652344 82.078125 L 80.964844 78.617188 L 81.273438 75.195312 L 81.582031 71.820312 L 81.890625 68.507812 L 82.203125 65.28125 L 82.511719 62.128906 L 82.820312 59.058594 L 83.128906 56.085938 L 83.441406 53.25 L 83.75 50.523438 L 84.058594 47.910156 L 84.367188 45.417969 L 84.679688 43.109375 L 84.988281 40.9375 L 85.296875 38.90625 L 85.605469 37.011719 L 85.917969 35.316406 L 86.226562 33.78125 L 86.535156 32.398438 L 86.84375 31.167969 L 87.15625 30.121094 L 87.464844 29.253906 L 87.773438 28.539062 L 88.082031 27.972656 L 88.394531 27.5625 L 88.703125 27.339844 L 89.011719 27.253906 L 89.320312 27.296875 L 89.632812 27.46875 L 89.941406 27.808594 L 90.25 28.261719 L 90.558594 28.816406 L 90.871094 29.472656 L 91.179688 30.25 L 91.488281 31.117188 L 91.796875 32.050781 L 92.109375 33.054688 L 92.417969 34.125 L 92.726562 35.253906 L 93.035156 36.414062 L 93.347656 37.605469 L 93.65625 38.820312 L 93.964844 40.046875 L 94.273438 41.277344 L 94.585938 42.5 L 94.894531 43.710938 L 95.203125 44.894531 L 95.511719 46.046875 L 95.824219 47.164062 L 96.132812 48.242188 L 96.441406 49.261719 L 96.75 50.222656 L 97.058594 51.132812 L 97.371094 51.984375 L 97.679688 52.761719 L 97.988281 53.460938 L 98.296875 54.101562 L 98.609375 54.679688 L 98.917969 55.183594 L 99.226562 55.605469 L 99.535156 55.972656 L 99.847656 56.277344 L 100.15625 56.527344 L 100.464844 56.707031 L 100.773438 56.839844 L 101.085938 56.933594 L 101.394531 56.988281 L 101.703125 57.003906 L 102.011719 56.996094 L 102.324219 56.96875 L 102.632812 56.933594 L 102.941406 56.894531 L 103.25 56.859375 L 103.5625 56.84375 L 103.871094 56.84375 L 104.179688 56.878906 L 104.488281 56.960938 L 104.800781 57.089844 L 105.109375 57.269531 L 105.417969 57.507812 L 105.726562 57.847656 L 106.039062 58.261719 L 106.347656 58.757812 L 106.65625 59.339844 L 106.964844 60.050781 L 107.277344 60.875 L 107.585938 61.804688 L 107.894531 62.84375 L 108.203125 64.03125 L 108.515625 65.359375 L 108.824219 66.8125 L 109.132812 68.394531 L 109.441406 70.121094 L 109.753906 72.015625 L 110.0625 74.042969 L 110.371094 76.203125 L 110.679688 78.496094 L 110.992188 80.976562 L 111.300781 83.582031 L 111.609375 86.3125 L 111.917969 89.167969 L 112.230469 92.191406 L 112.539062 95.332031 L 112.847656 98.585938 L 113.15625 101.941406 L 113.46875 105.425781 L 113.777344 109.019531 L 114.085938 112.691406 L 114.394531 116.445312 L 114.703125 120.285156 L 115.015625 124.199219 L 115.324219 128.164062 L 115.632812 132.179688 L 115.941406 136.234375 L 116.253906 140.324219 L 116.5625 144.433594 L 117.179688 152.675781 L 117.492188 156.792969 L 117.800781 160.890625 L 118.109375 164.964844 L 118.417969 169.011719 L 118.730469 173.011719 L 119.039062 176.957031 L 119.347656 180.851562 L 119.65625 184.691406 L 119.96875 188.457031 L 120.277344 192.140625 L 120.585938 195.746094 L 120.894531 199.28125 L 121.207031 202.730469 L 121.515625 206.0625 L 121.824219 209.3125 L 122.132812 212.472656 L 122.445312 215.546875 L 122.753906 218.492188 L 123.0625 221.339844 L 123.371094 224.101562 L 123.683594 226.765625 L 123.992188 229.316406 L 124.300781 231.757812 L 124.609375 234.113281 L 124.921875 236.375 L 125.230469 238.535156 L 125.539062 240.585938 L 125.847656 242.554688 L 126.160156 244.4375 L 126.46875 246.230469 L 126.777344 247.917969 L 127.085938 249.527344 L 127.398438 251.0625 L 127.707031 252.523438 L 128.015625 253.882812 L 128.324219 255.175781 L 128.636719 256.398438 L 128.945312 257.5625 L 129.253906 258.640625 L 129.5625 259.65625 L 129.875 260.613281 L 130.183594 261.515625 L 130.492188 262.355469 L 130.800781 263.132812 L 131.113281 263.863281 L 131.421875 264.546875 L 131.730469 265.1875 L 132.039062 265.769531 L 132.347656 266.316406 L 132.660156 266.824219 L 132.96875 267.300781 L 133.277344 267.730469 L 133.585938 268.132812 L 133.898438 268.503906 L 134.207031 268.855469 L 134.515625 269.171875 L 134.824219 269.46875 L 135.136719 269.746094 L 135.445312 270.007812 L 135.753906 270.253906 L 136.0625 270.484375 L 136.375 270.703125 L 136.683594 270.914062 L 136.992188 271.117188 L 137.300781 271.316406 L 137.613281 271.507812 L 138.539062 272.09375 L 138.851562 272.292969 L 139.160156 272.496094 L 139.46875 272.707031 L 139.777344 272.925781 L 140.089844 273.152344 L 140.398438 273.390625 L 140.707031 273.636719 L 141.015625 273.894531 L 141.328125 274.164062 L 141.636719 274.445312 L 141.945312 274.738281 L 142.253906 275.046875 L 142.566406 275.367188 L 142.875 275.699219 L 143.183594 276.042969 L 143.492188 276.398438 L 143.804688 276.769531 L 144.113281 277.152344 L 144.421875 277.539062 L 144.730469 277.9375 L 145.042969 278.347656 L 145.351562 278.765625 L 145.660156 279.1875 L 145.96875 279.617188 L 146.28125 280.046875 L 147.207031 281.359375 L 147.519531 281.792969 L 147.828125 282.226562 L 148.136719 282.65625 L 148.445312 283.082031 L 148.757812 283.503906 L 149.066406 283.910156 L 149.375 284.3125 L 149.683594 284.703125 L 149.992188 285.082031 L 150.304688 285.445312 L 150.613281 285.796875 L 150.921875 286.132812 L 151.230469 286.457031 L 151.542969 286.757812 L 151.851562 287.042969 L 152.160156 287.308594 L 152.46875 287.558594 L 152.78125 287.789062 L 153.089844 287.996094 L 153.398438 288.183594 L 153.707031 288.351562 L 154.019531 288.503906 L 154.328125 288.625 L 154.636719 288.730469 L 154.945312 288.816406 L 155.257812 288.882812 L 155.566406 288.925781 L 155.875 288.953125 L 156.183594 288.957031 L 156.496094 288.945312 L 156.804688 288.917969 L 157.113281 288.867188 L 157.421875 288.804688 L 157.734375 288.726562 L 158.042969 288.632812 L 158.351562 288.523438 L 158.660156 288.40625 L 158.972656 288.277344 L 159.28125 288.140625 L 159.589844 287.992188 L 159.898438 287.835938 L 160.210938 287.679688 L 160.828125 287.351562 L 161.136719 287.183594 L 161.449219 287.019531 L 161.757812 286.855469 L 162.066406 286.695312 L 162.375 286.542969 L 162.6875 286.394531 L 162.996094 286.253906 L 163.304688 286.121094 L 163.613281 286.003906 L 163.925781 285.894531 L 164.234375 285.800781 L 164.542969 285.714844 L 164.851562 285.648438 L 165.164062 285.597656 L 165.472656 285.558594 L 165.78125 285.535156 L 166.089844 285.53125 L 166.089844 292.089844 Z M 7.910156 292.089844 "/>
<path fill="none" stroke-width="1.066978" stroke-linecap="butt" stroke-linejoin="round" stroke="rgb(0%, 0%, 0%)" stroke-opacity="1" stroke-miterlimit="10" d="M 7.910156 292.089844 L 34.53125 292.089844 L 34.839844 292.085938 L 35.769531 292.085938 L 36.078125 292.082031 L 36.386719 292.082031 L 36.699219 292.078125 L 37.007812 292.078125 L 37.625 292.070312 L 37.9375 292.066406 L 38.554688 292.058594 L 38.863281 292.050781 L 39.175781 292.042969 L 39.792969 292.027344 L 40.101562 292.015625 L 40.414062 292.003906 L 41.03125 291.972656 L 41.339844 291.953125 L 41.652344 291.929688 L 41.960938 291.90625 L 42.578125 291.84375 L 42.886719 291.808594 L 43.199219 291.765625 L 43.507812 291.71875 L 43.816406 291.667969 L 44.125 291.609375 L 44.4375 291.542969 L 44.746094 291.472656 L 45.054688 291.394531 L 45.363281 291.304688 L 45.675781 291.203125 L 45.984375 291.097656 L 46.292969 290.980469 L 46.601562 290.847656 L 46.914062 290.703125 L 47.222656 290.546875 L 47.53125 290.378906 L 47.839844 290.191406 L 48.152344 289.988281 L 48.460938 289.769531 L 48.769531 289.535156 L 49.078125 289.28125 L 49.390625 289.003906 L 49.699219 288.710938 L 50.007812 288.394531 L 50.316406 288.058594 L 50.628906 287.695312 L 50.9375 287.308594 L 51.246094 286.898438 L 51.554688 286.464844 L 51.867188 285.996094 L 52.175781 285.503906 L 52.484375 284.984375 L 52.792969 284.4375 L 53.105469 283.855469 L 53.414062 283.238281 L 53.722656 282.597656 L 54.03125 281.921875 L 54.34375 281.210938 L 54.652344 280.460938 L 54.960938 279.675781 L 55.269531 278.859375 L 55.582031 278.003906 L 55.890625 277.101562 L 56.199219 276.164062 L 56.507812 275.1875 L 56.820312 274.167969 L 57.128906 273.097656 L 57.4375 271.988281 L 57.746094 270.832031 L 58.058594 269.640625 L 58.367188 268.382812 L 58.675781 267.082031 L 58.984375 265.734375 L 59.296875 264.339844 L 59.605469 262.886719 L 59.914062 261.375 L 60.222656 259.816406 L 60.53125 258.210938 L 60.84375 256.546875 L 61.152344 254.820312 L 61.460938 253.042969 L 61.769531 251.214844 L 62.082031 249.335938 L 62.390625 247.390625 L 62.699219 245.398438 L 63.007812 243.355469 L 63.320312 241.269531 L 63.628906 239.117188 L 63.9375 236.921875 L 64.246094 234.6875 L 64.558594 232.410156 L 64.867188 230.082031 L 65.175781 227.71875 L 65.484375 225.320312 L 65.796875 222.890625 L 66.105469 220.429688 L 66.414062 217.9375 L 66.722656 215.421875 L 67.035156 212.886719 L 67.34375 210.335938 L 67.652344 207.761719 L 67.960938 205.171875 L 68.273438 202.578125 L 68.582031 199.96875 L 68.890625 197.355469 L 69.199219 194.730469 L 69.511719 192.105469 L 69.820312 189.472656 L 70.128906 186.835938 L 70.4375 184.191406 L 70.75 181.542969 L 71.058594 178.886719 L 71.367188 176.222656 L 71.675781 173.546875 L 71.988281 170.859375 L 72.296875 168.15625 L 72.605469 165.4375 L 72.914062 162.691406 L 73.226562 159.921875 L 73.535156 157.125 L 73.84375 154.300781 L 74.152344 151.433594 L 74.464844 148.53125 L 74.773438 145.589844 L 75.082031 142.609375 L 75.390625 139.574219 L 75.703125 136.492188 L 76.011719 133.363281 L 76.320312 130.195312 L 76.628906 126.96875 L 76.941406 123.691406 L 77.25 120.371094 L 77.558594 117.011719 L 77.867188 113.613281 L 78.175781 110.167969 L 78.488281 106.695312 L 78.796875 103.199219 L 79.105469 99.6875 L 79.414062 96.15625 L 79.726562 92.621094 L 80.035156 89.089844 L 80.34375 85.570312 L 80.652344 82.078125 L 80.964844 78.617188 L 81.273438 75.195312 L 81.582031 71.820312 L 81.890625 68.507812 L 82.203125 65.28125 L 82.511719 62.128906 L 82.820312 59.058594 L 83.128906 56.085938 L 83.441406 53.25 L 83.75 50.523438 L 84.058594 47.910156 L 84.367188 45.417969 L 84.679688 43.109375 L 84.988281 40.9375 L 85.296875 38.90625 L 85.605469 37.011719 L 85.917969 35.316406 L 86.226562 33.78125 L 86.535156 32.398438 L 86.84375 31.167969 L 87.15625 30.121094 L 87.464844 29.253906 L 87.773438 28.539062 L 88.082031 27.972656 L 88.394531 27.5625 L 88.703125 27.339844 L 89.011719 27.253906 L 89.320312 27.296875 L 89.632812 27.46875 L 89.941406 27.808594 L 90.25 28.261719 L 90.558594 28.816406 L 90.871094 29.472656 L 91.179688 30.25 L 91.488281 31.117188 L 91.796875 32.050781 L 92.109375 33.054688 L 92.417969 34.125 L 92.726562 35.253906 L 93.035156 36.414062 L 93.347656 37.605469 L 93.65625 38.820312 L 93.964844 40.046875 L 94.273438 41.277344 L 94.585938 42.5 L 94.894531 43.710938 L 95.203125 44.894531 L 95.511719 46.046875 L 95.824219 47.164062 L 96.132812 48.242188 L 96.441406 49.261719 L 96.75 50.222656 L 97.058594 51.132812 L 97.371094 51.984375 L 97.679688 52.761719 L 97.988281 53.460938 L 98.296875 54.101562 L 98.609375 54.679688 L 98.917969 55.183594 L 99.226562 55.605469 L 99.535156 55.972656 L 99.847656 56.277344 L 100.15625 56.527344 L 100.464844 56.707031 L 100.773438 56.839844 L 101.085938 56.933594 L 101.394531 56.988281 L 101.703125 57.003906 L 102.011719 56.996094 L 102.324219 56.96875 L 102.632812 56.933594 L 102.941406 56.894531 L 103.25 56.859375 L 103.5625 56.84375 L 103.871094 56.84375 L 104.179688 56.878906 L 104.488281 56.960938 L 104.800781 57.089844 L 105.109375 57.269531 L 105.417969 57.507812 L 105.726562 57.847656 L 106.039062 58.261719 L 106.347656 58.757812 L 106.65625 59.339844 L 106.964844 60.050781 L 107.277344 60.875 L 107.585938 61.804688 L 107.894531 62.84375 L 108.203125 64.03125 L 108.515625 65.359375 L 108.824219 66.8125 L 109.132812 68.394531 L 109.441406 70.121094 L 109.753906 72.015625 L 110.0625 74.042969 L 110.371094 76.203125 L 110.679688 78.496094 L 110.992188 80.976562 L 111.300781 83.582031 L 111.609375 86.3125 L 111.917969 89.167969 L 112.230469 92.191406 L 112.539062 95.332031 L 112.847656 98.585938 L 113.15625 101.941406 L 113.46875 105.425781 L 113.777344 109.019531 L 114.085938 112.691406 L 114.394531 116.445312 L 114.703125 120.285156 L 115.015625 124.199219 L 115.324219 128.164062 L 115.632812 132.179688 L 115.941406 136.234375 L 116.253906 140.324219 L 116.5625 144.433594 L 117.179688 152.675781 L 117.492188 156.792969 L 117.800781 160.890625 L 118.109375 164.964844 L 118.417969 169.011719 L 118.730469 173.011719 L 119.039062 176.957031 L 119.347656 180.851562 L 119.65625 184.691406 L 119.96875 188.457031 L 120.277344 192.140625 L 120.585938 195.746094 L 120.894531 199.28125 L 121.207031 202.730469 L 121.515625 206.0625 L 121.824219 209.3125 L 122.132812 212.472656 L 122.445312 215.546875 L 122.753906 218.492188 L 123.0625 221.339844 L 123.371094 224.101562 L 123.683594 226.765625 L 123.992188 229.316406 L 124.300781 231.757812 L 124.609375 234.113281 L 124.921875 236.375 L 125.230469 238.535156 L 125.539062 240.585938 L 125.847656 242.554688 L 126.160156 244.4375 L 126.46875 246.230469 L 126.777344 247.917969 L 127.085938 249.527344 L 127.398438 251.0625 L 127.707031 252.523438 L 128.015625 253.882812 L 128.324219 255.175781 L 128.636719 256.398438 L 128.945312 257.5625 L 129.253906 258.640625 L 129.5625 259.65625 L 129.875 260.613281 L 130.183594 261.515625 L 130.492188 262.355469 L 130.800781 263.132812 L 131.113281 263.863281 L 131.421875 264.546875 L 131.730469 265.1875 L 132.039062 265.769531 L 132.347656 266.316406 L 132.660156 266.824219 L 132.96875 267.300781 L 133.277344 267.730469 L 133.585938 268.132812 L 133.898438 268.503906 L 134.207031 268.855469 L 134.515625 269.171875 L 134.824219 269.46875 L 135.136719 269.746094 L 135.445312 270.007812 L 135.753906 270.253906 L 136.0625 270.484375 L 136.375 270.703125 L 136.683594 270.914062 L 136.992188 271.117188 L 137.300781 271.316406 L 137.613281 271.507812 L 138.539062 272.09375 L 138.851562 272.292969 L 139.160156 272.496094 L 139.46875 272.707031 L 139.777344 272.925781 L 140.089844 273.152344 L 140.398438 273.390625 L 140.707031 273.636719 L 141.015625 273.894531 L 141.328125 274.164062 L 141.636719 274.445312 L 141.945312 274.738281 L 142.253906 275.046875 L 142.566406 275.367188 L 142.875 275.699219 L 143.183594 276.042969 L 143.492188 276.398438 L 143.804688 276.769531 L 144.113281 277.152344 L 144.421875 277.539062 L 144.730469 277.9375 L 145.042969 278.347656 L 145.351562 278.765625 L 145.660156 279.1875 L 145.96875 279.617188 L 146.28125 280.046875 L 147.207031 281.359375 L 147.519531 281.792969 L 147.828125 282.226562 L 148.136719 282.65625 L 148.445312 283.082031 L 148.757812 283.503906 L 149.066406 283.910156 L 149.375 284.3125 L 149.683594 284.703125 L 149.992188 285.082031 L 150.304688 285.445312 L 150.613281 285.796875 L 150.921875 286.132812 L 151.230469 286.457031 L 151.542969 286.757812 L 151.851562 287.042969 L 152.160156 287.308594 L 152.46875 287.558594 L 152.78125 287.789062 L 153.089844 287.996094 L 153.398438 288.183594 L 153.707031 288.351562 L 154.019531 288.503906 L 154.328125 288.625 L 154.636719 288.730469 L 154.945312 288.816406 L 155.257812 288.882812 L 155.566406 288.925781 L 155.875 288.953125 L 156.183594 288.957031 L 156.496094 288.945312 L 156.804688 288.917969 L 157.113281 288.867188 L 157.421875 288.804688 L 157.734375 288.726562 L 158.042969 288.632812 L 158.351562 288.523438 L 158.660156 288.40625 L 158.972656 288.277344 L 159.28125 288.140625 L 159.589844 287.992188 L 159.898438 287.835938 L 160.210938 287.679688 L 160.828125 287.351562 L 161.136719 287.183594 L 161.449219 287.019531 L 161.757812 286.855469 L 162.066406 286.695312 L 162.375 286.542969 L 162.6875 286.394531 L 162.996094 286.253906 L 163.304688 286.121094 L 163.613281 286.003906 L 163.925781 285.894531 L 164.234375 285.800781 L 164.542969 285.714844 L 164.851562 285.648438 L 165.164062 285.597656 L 165.472656 285.558594 L 165.78125 285.535156 L 166.089844 285.53125 "/>
</svg>
